# xmcd
#
# Track frame offsets: 
#        150
#        12062
#        31672
#        42722
#        56450
#        70327
#        84192
#        98177
#        117255
#        131902
#        152527
#
# Disc length: 2230 seconds
#
# Revision: 0
# Processed by: cddbd v1.4PL0 Copyright (c) Steve Scherf et al.
# Submitted via: ExactAudioCopy v0.90b4
#
DISCID=8508b40b
DTITLE=Henry de Winter - The Unknown Recordings
DYEAR=1994
DGENRE=Swing
TTITLE0=Black Bottom
TTITLE1=Who
TTITLE2=You Are My Lucky Star
TTITLE3=Siboney
TTITLE4=Yes Sir, That's My Baby
TTITLE5=Whispering
TTITLE6=The Continental
TTITLE7='S Wonderful
TTITLE8=Three O'Clock In The Morning
TTITLE9=Puttin' On The Ritz
TTITLE10=Happy Days Are Here Again
EXTD=
EXTT0=
EXTT1=
EXTT2=
EXTT3=
EXTT4=
EXTT5=
EXTT6=
EXTT7=
EXTT8=
EXTT9=
EXTT10=
PLAYORDER=
